#!OML:ASF Y:\EmotionMaleHayes\Project 1\Capture day 1\Session 1\Male1.ASF
:FULLY-SPECIFIED
:DEGREES
17
root -20.636 16.2647 0.0508011 -21.7158 79.4428 -29.3812
lowerback 20.3108 7.05611 4.4493
upperback 1.66055 10.4935 1.11287
thorax -8.85099 4.90397 -4.09663
lowerneck -32.0648 -1.25238 0.904238
upperneck 19.8411 -1.52163 -2.21504
head 11.6811 -0.924738 -1.2692
rclavicle 4.65156e-014 -2.38542e-015
rhumerus -8.38012 22.7479 -80.6437
rradius 90.8515
rwrist -15.9691
rhand -33.3036 -28.0458
rfingers 7.12502
rthumb -6.50735 -57.9259
lclavicle 4.65156e-014 -2.38542e-015
lhumerus -91.7943 -28.7528 103.62
lradius 75.3805
lwrist 6.80201
lhand -21.4141 -19.6008
lfingers 7.12502
lthumb 4.97453 10.3209
rfemur 19.3717 2.84463 23.511
rtibia 16.2461
rfoot -9.73616 5.91795
rtoes -9.99177
lfemur -56.3035 10.3931 -16.0998
ltibia 84.4943
lfoot 332.82 47.184
ltoes -2.78982
18
root -20.0137 16.3584 0.0246165 -18.9481 80.0282 -26.9164
lowerback 19.3382 7.16298 4.14887
upperback 1.63767 10.4739 0.696622
thorax -8.31997 4.92918 -4.23003
lowerneck -32.0506 -1.55568 0.681504
upperneck 19.9651 -1.97679 -1.71944
head 11.7252 -1.07461 -1.13153
rclavicle 2.68359e-014 7.95139e-015
rhumerus -8.61728 24.3491 -80.1811
rradius 93.4067
rwrist -17.9086
rhand -33.1374 -27.5724
rfingers 7.12502
rthumb -6.34682 -57.4573
lclavicle 2.68359e-014 7.95139e-015
lhumerus -94.1009 -28.4981 103.54
lradius 76.1013
lwrist 7.82031
lhand -21.3015 -19.8493
lfingers 7.12502
lthumb 5.08328 10.0697
rfemur 21.2522 1.56414 21.1428
rtibia 14.8486
rfoot -3.27661 6.00219
rtoes -2.34833
lfemur -56.4911 9.24064 -16.6479
ltibia 77.4167
lfoot 345.664 13.1502
ltoes -3.21474
19
root -19.3894 16.4505 -0.00179683 -15.6293 80.3339 -23.8402
lowerback 18.3972 7.31168 3.84719
upperback 1.67662 10.519 0.245934
thorax -7.72649 4.98891 -4.40744
lowerneck -32.2216 -1.79072 0.723911
upperneck 20.2675 -2.40623 -1.42428
head 11.8682 -1.21809 -1.11268
rclavicle 1.96797e-014 -4.05521e-014
rhumerus -8.89403 25.666 -79.9055
rradius 95.912
rwrist -19.3329
rhand -33.0073 -27.0975
rfingers 7.12502
rthumb -6.22126 -56.9861
lclavicle 1.96797e-014 -4.05521e-014
lhumerus -95.7824 -28.1088 102.962
lradius 76.721
lwrist 8.97332
lhand -20.9771 -20.2941
lfingers 7.12502
lthumb 5.39647 9.61715
rfemur 23.085 0.61194 18.7898
rtibia 13.4261
rfoot 3.16331 4.41055
rtoes 6.83781
lfemur -56.1412 8.39713 -17.1096
ltibia 71.3204
lfoot 345.876 12.8808
ltoes -2.89576
20
root -18.7697 16.5321 -0.0161921 -20.6499 79.8455 -28.7071
lowerback 18.0774 7.40356 5.05123
upperback 1.77938 10.8598 0.176012
thorax -7.1757 5.15174 -5.12282
lowerneck -32.4487 -2.03831 0.831759
upperneck 20.6102 -2.88059 -1.15271
head 12.0369 -1.37681 -1.12362
rclavicle 2.26615e-014 8.34896e-015
rhumerus -9.65468 26.6234 -80.0748
rradius 98.1965
rwrist -19.2859
rhand -33.0958 -25.8547
rfingers 7.12502
rthumb -6.30671 -55.7408
lclavicle 2.26615e-014 8.34896e-015
lhumerus -96.9409 -27.9224 101.981
lradius 77.3774
lwrist 10.643
lhand -20.0198 -20.3086
lfingers 7.12502
lthumb 6.32069 9.57714
rfemur 25.2056 0.481929 18.8045
rtibia 11.8558
rfoot 8.679 1.927
rtoes 14.098
lfemur -55.0848 8.4159 -15.5998
ltibia 65.1545
lfoot 345.642 11.8872
ltoes -3.8834
21
root -18.1526 16.6141 -0.0464518 -15.6098 79.9529 -24.0664
lowerback 17.0737 7.78246 4.41738
upperback 1.76455 11.1453 -0.28911
thorax -6.63977 5.33457 -5.16816
lowerneck -32.4346 -2.40306 0.700643
upperneck 20.8026 -3.39639 -0.907627
head 12.1102 -1.57832 -1.10939
rclavicle 1.78906e-015 -1.19271e-015
rhumerus -10.8244 27.2818 -80.1503
rradius 100.295
rwrist -19.0779
rhand -32.9279 -23.3853
rfingers 7.12502
rthumb -6.14457 -53.2762
lclavicle 1.78906e-015 -1.19271e-015
lhumerus -97.958 -27.8649 101.45
lradius 77.8209
lwrist 10.9965
lhand -20.3077 -20.0027
lfingers 7.12502
lthumb 6.04278 9.89109
rfemur 26.5105 0.561907 16.7656
rtibia 10.5901
rfoot 13.2428 -0.648045
rtoes 19.5067
lfemur -54.1126 7.92351 -16.3411
ltibia 58.7651
lfoot 345.251 10.8372
ltoes -3.12061
22
root -17.5247 16.6926 -0.0617308 -12.8437 80.6984 -21.3366
lowerback 16.315 7.85898 3.93758
upperback 1.86973 11.1059 -0.567244
thorax -6.15227 5.35585 -5.06177
lowerneck -32.3472 -2.82611 0.392374
upperneck 21.0297 -3.91692 -0.64151
head 12.1915 -1.79309 -1.05964
rclavicle 3.29983e-014 2.42517e-014
rhumerus -11.6835 28.3816 -80.0024
rradius 101.862
rwrist -18.621
rhand -33.1589 -22.928
rfingers 7.12502
rthumb -6.36766 -52.8123
lclavicle 3.29983e-014 2.42517e-014
lhumerus -98.4646 -27.8097 100.803
lradius 78.1385
lwrist 11.2029
lhand -20.1476 -20.4768
lfingers 7.12502
lthumb 6.19735 9.41258
rfemur 28.1767 0.948404 15.8038
rtibia 10.0119
rfoot 15.3306 -3.05913
rtoes 18.8368
lfemur -52.4238 7.03377 -17.0653
ltibia 52.0449
lfoot 345.597 9.40158
ltoes -4.74824
23
root -16.9122 16.758 -0.0683238 -15.1317 80.9776 -23.4847
lowerback 16.0262 7.92095 4.23623
upperback 1.9429 11.2305 -0.553901
thorax -5.8508 5.42903 -5.16855
lowerneck -32.2799 -3.26715 -0.0228055
upperneck 21.3717 -4.42904 -0.330476
head 12.3296 -2.00435 -0.976811
rclavicle 1.19668e-013 -9.54166e-015
rhumerus -13.5641 29.2446 -80.3674
rradius 103.878
rwrist -17.2902
rhand -33.2458 -23.5773
rfingers 7.12502
rthumb -6.45154 -53.4591
lclavicle 1.19668e-013 -9.54166e-015
lhumerus -98.403 -27.6861 99.9881
lradius 78.3244
lwrist 11.1504
lhand -19.4905 -20.6373
lfingers 7.12502
lthumb 6.83165 9.23249
rfemur 29.215 1.88116 16.5151
rtibia 11.2055
rfoot 15.2163 -4.13025
rtoes 15.9713
lfemur -50.4545 6.78791 -16.698
ltibia 45.4268
lfoot 346.007 8.05999
ltoes -5.01906
24
root -16.3133 16.8103 -0.0721285 -16.6026 81.2735 -24.7909
lowerback 15.9946 7.99578 4.38592
upperback 1.91602 11.3492 -0.643926
thorax -5.80233 5.48604 -5.35633
lowerneck -32.1605 -3.63856 -0.179879
upperneck 21.7182 -4.92393 -0.174053
head 12.4531 -2.20786 -0.990834
rclavicle -1.35174e-014 3.77691e-014
rhumerus -15.986 29.8188 -81.2107
rradius 105.481
rwrist -15.5667
rhand -32.822 -23.2314
rfingers 7.12502
rthumb -6.04239 -53.1252
lclavicle -1.35174e-014 3.77691e-014
lhumerus -98.2214 -27.5283 99.2592
lradius 78.3324
lwrist 9.71021
lhand -20.4957 -20.6
lfingers 7.12502
lthumb 5.86124 9.29895
rfemur 29.5973 2.98688 17.4988
rtibia 13.9431
rfoot 13.8578 -4.57665
rtoes 14.3215
lfemur -48.4158 6.64296 -16.5396
ltibia 38.7915
lfoot 346.49 6.92705
ltoes -4.9693
25
root -15.7233 16.8539 -0.0733306 -18.7859 81.5424 -26.7243
lowerback 16.1749 7.97727 4.48699
upperback 1.86933 11.3509 -0.661604
thorax -5.92671 5.47692 -5.46323
lowerneck -31.9813 -3.80655 -0.128005
upperneck 21.9316 -5.16775 -0.23722
head 12.5018 -2.31736 -1.07091
rclavicle 2.5842e-014 2.78299e-015
rhumerus -18.4576 30.5545 -82.4246
rradius 106.443
rwrist -14.9646
rhand -33.5254 -22.6422
rfingers 7.12502
rthumb -6.72147 -52.5155
lclavicle 2.5842e-014 2.78299e-015
lhumerus -97.6383 -27.0263 98.2667
lradius 78.4066
lwrist 8.73151
lhand -21.0835 -20.7073
lfingers 7.12502
lthumb 5.29368 9.20655
rfemur 29.5417 4.00096 18.7288
rtibia 17.8271
rfoot 12.4376 -5.36765
rtoes 16.4388
lfemur -46.3746 6.68659 -16.4266
ltibia 33.1226
lfoot 346.886 5.55873
ltoes -1.8995
26
root -15.1298 16.8785 -0.0739209 -19.2509 81.5286 -27.2763
lowerback 15.8209 8.02007 4.25227
upperback 1.80654 11.3521 -0.658109
thorax -5.84831 5.48552 -5.28466
lowerneck -31.7878 -3.98088 -0.331949
upperneck 22.1963 -5.35206 -0.129362
head 12.5827 -2.39666 -1.0337
rclavicle 2.5842e-014 -1.15295e-014
rhumerus -20.8194 31.4321 -83.8344
rradius 107.037
rwrist -14.9676
rhand -32.3251 -22.4885
rfingers 7.12502
rthumb -5.56259 -52.3955
lclavicle 2.5842e-014 -1.15295e-014
lhumerus -96.5141 -26.0921 97.1685
lradius 78.2491
lwrist 8.00032
lhand -21.6163 -20.734
lfingers 7.12502
lthumb 4.77923 9.19214
rfemur 28.7562 4.84577 19.4703
rtibia 22.3895
rfoot 11.0936 -6.35563
rtoes 19.3282
lfemur -44.8081 7.23538 -16.5868
ltibia 28.3809
lfoot 346.978 4.78897
ltoes -6.5254
27
root -14.5375 16.8939 -0.0766287 -15.7256 81.7447 -23.8837
lowerback 15.3177 8.02759 3.5108
upperback 1.80323 11.2026 -0.889735
thorax -5.68775 5.43576 -5.02882
lowerneck -31.4384 -4.0989 -0.603492
upperneck 22.2181 -5.48874 0.19364
head 12.5495 -2.43444 -0.88569
rclavicle -7.03698e-014 1.11319e-014
rhumerus -22.9895 32.2752 -85.4532
rradius 107.034
rwrist -15.2884
rhand -31.9853 -23.6899
rfingers 7.12502
rthumb -5.23452 -53.6053
lclavicle -7.03698e-014 1.11319e-014
lhumerus -94.9272 -25.0883 96.0665
lradius 77.8101
lwrist 7.30252
lhand -22.6419 -20.664
lfingers 7.12502
lthumb 3.78896 9.28202
rfemur 27.6917 5.33381 19.1974
rtibia 27.3684
rfoot 10.2665 -7.69498
rtoes 21.6155
lfemur -43.372 7.58161 -17.5479
ltibia 24.262
lfoot 347.384 4.30442
ltoes -6.16856
28
root -13.9473 16.8902 -0.0788241 -22.6804 81.2162 -30.4169
lowerback 15.4759 7.85324 4.49879
upperback 1.91302 11.1605 -0.659406
thorax -5.52094 5.40826 -5.31329
lowerneck -30.9836 -4.0638 -0.708736
upperneck 22.1423 -5.46766 0.44663
head 12.4509 -2.40139 -0.757132
rclavicle -1.96797e-014 2.18663e-014
rhumerus -25.3415 33.0303 -87.2765
rradius 106.637
rwrist -15.6362
rhand -31.6664 -23.8458
rfingers 7.12502
rthumb -4.92664 -53.7685
lclavicle -1.96797e-014 2.18663e-014
lhumerus -93.1019 -24.0252 95.0959
lradius 77.3259
lwrist 7.07452
lhand -24.0295 -20.4781
lfingers 7.12502
lthumb 2.44892 9.48759
rfemur 27.0501 5.92797 21.0615
rtibia 32.7218
rfoot 8.99162 -9.72409
rtoes 21.7074
lfemur -41.5412 8.34501 -16.3041
ltibia 21.2197
lfoot 347.515 4.46139
ltoes -8.7611
29
root -13.3582 16.8734 -0.0773178 -26.465 80.9415 -33.9918
lowerback 15.3689 7.66193 4.86608
upperback 1.95428 10.9746 -0.523147
thorax -5.39878 5.31888 -5.3132
lowerneck -30.7405 -4.02423 -1.01288
upperneck 22.3565 -5.41928 0.916997
head 12.5198 -2.33464 -0.517274
rclavicle 7.524e-014 1.37161e-014
rhumerus -28.1685 33.4954 -89.2929
rradius 106.18
rwrist -16.1932
rhand -31.1081 -23.2531
rfingers 7.12502
rthumb -4.3875 -53.1877
lclavicle 7.524e-014 1.37161e-014
lhumerus -91.2457 -22.9311 94.2798
lradius 76.9238
lwrist 7.34802
lhand -25.3762 -20.2083
lfingers 7.12502
lthumb 1.14821 9.76836
rfemur 26.2163 6.16553 22.0743
rtibia 38.001
rfoot 8.12231 -12.7242
rtoes 24.3986
lfemur -40.2224 8.90352 -15.7289
ltibia 19.6321
lfoot 347.144 4.7253
ltoes -8.67775
